<svg xmlns="http://www.w3.org/2000/svg"
  xmlns:xlink="http://www.w3.org/1999/xlink" fill="none" version="1.1" width="45.5" height="45.5" viewBox="0 0 45.5 45.5">
  <g>
    <g>
      <ellipse cx="22.75" cy="22.75" rx="22" ry="22" fill-opacity="0" stroke="currentColor" fill="none" stroke-width="1.5"/>
    </g>
    <g>
      <path d="M13.1850200625,29.358691015625Q12.4976385625,31.315391015625,12.5801274525,32.543891015625Q12.7500000625,33.249991015625,13.2500000625,33.249991015625C13.7499990625,33.249991015625,13.7499990625,33.249991015625,14.1061090625,31.756091015625Q14.2092590625,30.959591015625,14.6140890625,29.816491015625L14.6311790625,29.768291015625L14.641549062500001,29.718191015625Q14.6493190625,29.680691015625,14.6583590625,29.654391015625L14.6840590625,29.583791015625Q14.7065490625,29.529691015625,14.7421990625,29.466591015625Q14.7740990625,29.414691015625,14.8187890625,29.356891015625Q14.8413190625,29.331891015625,14.857539062499999,29.312991015625L14.8821990625,29.284991015625Q14.904459062499999,29.262091015625,14.9428490625,29.223891015625Q15.0767890625,29.094091015625,15.2471990625,28.968891015625Q15.3169690625,28.917791015625,15.6972290625,28.763991015625Q16.1329690625,28.587691015625,16.3037490625,28.478991015625Q16.8791690625,28.118191015625,17.1509090625,27.781991015625Q17.3508190625,27.532391015625,17.447459062500002,27.260091015625Q17.534359062500002,27.024591015625,17.5976990625,26.760091015625Q17.7096790625,26.280491015625,17.7325390625,25.762391015625Q17.7518390625,25.330091015625,17.7092590625,24.782891015624998L17.7066890625,24.749791015625L17.2411090625,21.971491015625Q17.2206290625,21.858491015625,17.2052690625,21.750091015625L17.1884090625,21.639291015625L17.175029062500002,21.523891015625Q17.1499590625,21.319091015625,17.1372790625,21.073491015625002Q17.1127890625,20.644771015625,17.1478890625,20.173071015625Q17.1828690625,19.703541015625,17.2727890625,19.278311015625Q17.370329062499998,18.822761015624998,17.5332490625,18.419951015625Q17.6217490625,18.201611015624998,17.7205690625,18.023281015625L17.7386890625,17.990581015625L18.9866490625,15.090461015625Q19.4191490625,14.073791015625,19.7873390625,13.562101015625Q20.3253090625,12.814491015625,21.178329062499998,12.346291015625Q21.4970490625,12.171071015625,22.0213790625,12.187121015625Q22.4030490625,12.198811015625001,23.2835890625,12.363411015625Q23.5983890625,12.422271015625,23.7581890625,12.449691015625Q24.1321890625,12.514451015625,24.765489062500002,12.458511015625Q25.2099890625,12.419271015625,25.3689890625,12.460201015625Q26.255289062499997,12.776521015625,26.762789062499998,13.370431015625Q27.2021890625,13.884601015625,27.6012890625,14.925681015624999Q27.9123890625,15.737121015625,28.3317890625,17.865341015625Q28.6092890625,19.274051015625,28.7893890625,20.004291015625L28.7960890625,20.031511015625L28.8048890625,20.058151015625Q29.0353890625,20.762091015625,29.0836890625,21.141091015625Q29.3081890625,22.973991015625,28.7568890625,24.696791015625Q28.411689062500002,25.825691015625,28.5200890625,27.296191015625L28.5238890625,27.347791015625L28.5347890625,27.398391015625Q28.8699890625,28.960591015625,29.6771890625,29.913091015625Q30.1596890625,30.482391015625,31.1737890625,31.122391015625Q31.5308890625,31.347791015625,31.6911890625,31.463791015625L31.7007890625,31.470791015625L31.7105890625,31.477391015625Q31.8644890625,31.581491015625,31.9715890625,31.966691015625Q31.9825890625,32.006091015625,31.9921890625,32.045091015625005Q31.9921890625,33.749991015625,32.7499890625,33.749991015625Q33.507789062499995,33.749991015625,33.543589062500004,32.880191015625Q33.6050890625,32.241891015625,33.4166890625,31.564691015625Q33.1640890625,30.656391015625,32.5620890625,30.242491015625Q32.3631890625,30.099291015625,31.9743890625,29.853891015625Q31.1550890625,29.336891015625,30.8214890625,28.943191015625Q30.2695890625,28.291991015625,30.0123890625,27.134091015625Q29.9339890625,25.976791015625,30.1912890625,25.135491015625Q30.8369890625,23.117991015625,30.5725890625,20.958791015625Q30.5064890625,20.439531015625,30.2392890625,19.618591015625Q30.0690890625,18.923331015625,29.8034890625,17.575351015625Q29.3591890625,15.320571015625,29.0018890625,14.388711015625Q28.5102890625,13.106471015625,27.903189062499997,12.395951015625Q27.1274890625,11.488292015625,25.8456890625,11.037722015625L25.8291890625,11.031916015625L25.8123890625,11.026887015625Q25.383089062499998,10.898141015625,24.6335890625,10.964331015625Q24.1951890625,11.003044015625001,24.0141890625,10.971687015625Q23.863089062500002,10.945760015625,23.5591890625,10.888958015625Q22.564769062499998,10.703059015625,22.0672790625,10.687828335625Q21.133439062500003,10.659239115625,20.4556890625,11.031836015625Q19.3060190625,11.662862015625,18.5697990625,12.685991015625Q18.1041590625,13.333091015625,17.6063590625,14.503281015625L16.3897190625,17.330561015625Q16.2576090625,17.574001015625,16.1431190625,17.856451015624998Q15.9308690625,18.381211015625,15.8060290625,18.964251015625003Q15.6944990625,19.491711015625,15.6520290625,20.061601015625Q15.6096090625,20.631831015625,15.6397190625,21.158991015625Q15.6546690625,21.448991015624998,15.686129062500001,21.706091015625L15.7014690625,21.838591015625L15.7223390625,21.975791015625Q15.7394590625,22.097291015625,15.7651490625,22.238991015625L16.2162590625,24.931691015625Q16.248699062500002,25.367091015625,16.2340390625,25.695491015625002Q16.2172790625,26.075191015625002,16.1369990625,26.418991015625Q16.0963390625,26.588691015625002,16.0402590625,26.740691015625Q16.0219190625,26.792091015625,15.980139062500001,26.844291015625Q15.8700990625,26.980391015625,15.5068390625,27.208191015625Q15.4433190625,27.248591015625,15.1347290625,27.373491015625Q14.5811390625,27.597391015625,14.3605490625,27.758991015625Q14.1063490625,27.945691015625,13.8987490625,28.146991015625Q13.8248890625,28.220191015625,13.7894390625,28.257191015625L13.7784890625,28.268591015625L13.7214090625,28.333391015625L13.7155790625,28.340391015625Q13.7130690625,28.343391015625,13.6975190625,28.360491015625Q13.6921390625,28.366391015625,13.6896490625,28.369091015625L13.6731590625,28.387291015625L13.6578890625,28.406491015625Q13.5411550625,28.553491015625,13.4535530625,28.698791015625L13.4491180625,28.706091015625L13.4448520625,28.713591015625Q13.3512780625,28.876991015625,13.2880130625,29.034891015625L13.2835900625,29.045891015625L13.2490480625,29.140691015625Q13.2103550625,29.251991015625,13.1850200625,29.358691015625Z" fill="currentColor" fill-opacity="1"/>
    </g>
  </g>
</svg>