<svg xmlns="http://www.w3.org/2000/svg"
  xmlns:xlink="http://www.w3.org/1999/xlink" fill="none" version="1.1" width="45.5" height="45.5" viewBox="0 0 45.5 45.5">
  <g>
    <g>
      <g>
        <ellipse cx="22.75" cy="22.75" rx="22" ry="22" fill-opacity="0" stroke="currentColor" fill="none" stroke-width="1.5"/>
      </g>
      <g>
        <path d="M12.873697,19.460409683990477C12.647168,18.70957968399048,12.7226775,17.88367968399048,13.175736,17.283019683990478C13.628794,16.60727168399048,14.383890000000001,16.23185968399048,15.214500000000001,16.23185968399048L17.5553,16.23185968399048C18.15938,16.23185968399048,18.763460000000002,16.532189683990477,19.0655,17.05776668399048L20.198140000000002,19.08498968399048C20.50018,19.535489683990477,20.50018,20.136149683990478,20.198140000000002,20.661719683990476L19.21652,22.53878968399048C19.367539999999998,22.98927968399048,19.74508,23.96534968399048,20.57569,24.86633968399048C21.4063,25.69224968399048,22.463430000000002,26.067659683990478,22.9165,26.21782968399048L24.8042,25.24175968399048Q25.597099999999998,24.90387968399048,26.3899,25.24175968399048L28.4287,26.367959683990478C28.9573,26.66835968399048,29.2593,27.19385968399048,29.2593,27.794559683990478L29.2593,30.12215968399048C29.2593,30.94805968399048,28.8818,31.698859683990477,28.202199999999998,32.14935968399048C27.900100000000002,32.59985968399047,27.3716,32.74995968399048,26.9185,32.74995968399048C26.692,32.74995968399048,26.3899,32.67495968399048,26.1634,32.59985968399047C23.5961,31.698859683990477,19.97161,30.197159683990478,17.63081,27.869659683990477C15.29001,25.61716968399048,13.704304,22.01320968399048,12.873697,19.460409683990477ZM23.467599999999997,27.28375968399048L25.3078,26.33235968399048Q25.590899999999998,26.224039683990476,25.874000000000002,26.32765968399048L27.8485,27.41835968399048Q28.0593,27.53825968399048,28.0593,27.794559683990478L28.0593,30.12215968399048Q28.0593,30.804359683990477,27.539099999999998,31.149159683990476Q27.339100000000002,31.28175968399048,27.2055,31.48105968399048Q27.1593,31.54995968399048,26.9185,31.54995968399048Q26.810200000000002,31.54995968399048,26.541,31.460759683990478Q20.98215,29.50975968399048,18.47693,27.018759683990478Q17.007469999999998,25.60446968399048,15.7471,23.21735968399048Q14.73322,21.297099683990478,14.01481,19.08911968399048Q13.81551,18.427569683990477,14.13377,18.005629683990477Q14.15387,17.978989683990477,14.17245,17.95126968399048Q14.52069,17.431859683990478,15.214500000000001,17.431859683990478L17.5553,17.431859683990478Q17.89644,17.431859683990478,18.02506,17.655679683990478L19.15056,19.67028968399048Q19.17431,19.71280968399048,19.201430000000002,19.75324968399048Q19.27399,19.861469683990478,19.15771,20.063809683990478Q19.14583,20.08448968399048,19.13477,20.10562968399048L18.15315,21.98268968399048Q18.096980000000002,22.090089683990477,18.06342,22.206559683990477Q18.02987,22.323029683990477,18.02028,22.44384968399048Q18.01069,22.564679683990477,18.02545,22.684979683990477Q18.040219999999998,22.805279683990477,18.07875,22.92019968399048Q18.60977,24.504259683990476,19.6934,25.67970968399048Q19.71108,25.698879683990477,19.72957,25.71726968399048Q20.798299999999998,26.779959683990477,22.53895,27.35685968399048Q22.652839999999998,27.39465968399048,22.772,27.409059683990478Q22.8911,27.42355968399048,23.0107,27.414159683990476Q23.1303,27.40465968399048,23.2457,27.37175968399048Q23.3611,27.338859683990478,23.467599999999997,27.28375968399048Z" fill-rule="evenodd" fill="currentColor" fill-opacity="1"/>
      </g>
      <g>
        <path d="M30.38637800140381,19.80896Q30.296888001403808,20.13119,30.01033800140381,20.37417Q29.645888001403808,20.6832,29.171878001403808,20.6832L23.357338001403807,20.6832Q22.860373001403808,20.6832,22.49766100140381,20.34489Q22.102178001403807,19.976,22.102178001403807,19.41655L22.102178001403807,14.416653Q22.102178001403807,13.921101,22.43041900140381,13.556738Q22.796834201403808,13.15,23.357338001403807,13.15L29.171878001403808,13.15Q29.66883800140381,13.15,30.03154800140381,13.488319Q30.310988001403807,13.74896517,30.392988001403808,14.10475L31.13177800140381,13.7882213Q31.41307800140381,13.6520319,31.73040800140381,13.6843215Q32.11644800140381,13.7236024,32.38423800140381,13.996094Q32.80197800140381,14.421172,32.80197800140381,14.91664L32.80197800140381,18.91656Q32.80197800140381,19.659480000000002,32.22837800140381,19.95132Q32.21024800140381,19.96054,32.160578001403806,19.98767Q31.549138001403808,20.32157,31.135598001403807,20.12995L30.38637800140381,19.80896ZM29.22703800140381,19.46459Q29.20140800140381,19.4832,29.171878001403808,19.4832L23.357338001403807,19.4832Q23.333153001403808,19.4832,23.316169001403807,19.46736Q23.30217800140381,19.45431,23.30217800140381,19.41655L23.30217800140381,14.416653Q23.30217800140381,14.35,23.357338001403807,14.35L29.171878001403808,14.35Q29.22703800140381,14.35,29.22703800140381,14.416653L29.22703800140381,14.99997Q29.22703800140381,15.05907,29.23855800140381,15.11703Q29.25008800140381,15.17499,29.272708001403807,15.22958Q29.295318001403807,15.28418,29.328148001403807,15.33332Q29.360978001403808,15.38245,29.402768001403807,15.42424Q29.44455800140381,15.46602,29.493688001403807,15.49886Q29.54282800140381,15.53169,29.59742800140381,15.5543Q29.65201800140381,15.57692,29.709978001403808,15.58845Q29.76793800140381,15.599969999999999,29.827038001403807,15.599969999999999Q29.950158001403807,15.599969999999999,30.06332800140381,15.55149L31.58306800140381,14.90037Q31.59501800140381,14.91696,31.60198800140381,14.9311L31.60198800140381,18.91656Q31.60198800140381,18.92084,31.60110800140381,18.92594Q31.593518001403808,18.93006,31.58543800140381,18.93448Q31.534688001403808,18.96219,31.49918800140381,18.98023L30.06332800140381,18.36505Q30.009008001403807,18.34178,29.951188001403807,18.32955Q29.893368001403807,18.31732,29.83427800140381,18.31661Q29.77518800140381,18.31589,29.71709800140381,18.32672Q29.65899800140381,18.33755,29.604138001403808,18.3595Q29.54926800140381,18.38145,29.49973800140381,18.41369Q29.45020800140381,18.44592,29.40792800140381,18.4872Q29.36563800140381,18.528480000000002,29.33221800140381,18.57722Q29.298788001403807,18.62595,29.27551800140381,18.68027Q29.22703800140381,18.79344,29.22703800140381,18.91656L29.22703800140381,19.46459Z" fill-rule="evenodd" fill="currentColor" fill-opacity="1"/>
      </g>
    </g>
  </g>
</svg>