<svg xmlns="http://www.w3.org/2000/svg"
  xmlns:xlink="http://www.w3.org/1999/xlink" fill="none" version="1.1" width="16.7650146484375" height="66.84765625" viewBox="0 0 16.7650146484375 66.84765625">
  <g>
    <g transform="matrix(-1,0,0,1,33,0)">
      <path d="M29.227,57.879828125L16.235001,65.999828125L16.764999,66.847828125L29.756999999999998,58.727828125Q31.4726,57.655528125,31.9221,57.129128125Q32.5165,56.432928125,32.791799999999995,55.559928125Q33,54.899828125,33,52.876628125L33,13.971028125Q33,11.947828125,32.791799999999995,11.287728125Q32.5165,10.414688125,31.9221,9.718518125Q31.4726,9.192098125,29.756999999999998,8.119828125L16.764999,-0.00017087500000001477L16.235001,0.847827125L29.227,8.967818125Q30.8121,9.958498125,31.1616,10.367848125Q31.6239,10.909328125,31.8381,11.588428125Q32,12.101828125,32,13.971028125L32,52.876628125Q32,54.745828125,31.8381,55.259228125Q31.6239,55.938328125,31.1616,56.479828125Q30.8121,56.889128125,29.227,57.879828125Z" fill-rule="evenodd" fill="#E5E5E5" fill-opacity="1"/>
    </g>
    <g>
      <path d="M7.5908776171875,33.423828125L12.499967617187501,38.332928125L11.4090576171875,39.423828125L5.4090576171875,33.423828125L11.4090576171875,27.423828125L12.499967617187501,28.514738125L7.5908776171875,33.423828125Z" fill="#C1C1C1" fill-opacity="1"/>
    </g>
  </g>
</svg>