<svg xmlns="http://www.w3.org/2000/svg"
  xmlns:xlink="http://www.w3.org/1999/xlink" version="1.1" width="26" height="26" viewBox="0 0 26 26">
  <g>
    <g>
      <path d="M24.3669,2.7784325L23.2213,1.6328125L1.625,23.2291125L2.77062,24.3747125L24.3669,2.7784325Z"/>
    </g>
    <g>
      <path d="M18.6873296875,13.81255859375C18.6873296875,16.95692859375,16.1441796875,19.500058593749998,12.9998096875,19.500058593749998C11.5129296875,19.500058593749998,10.1722996875,18.923178593750002,9.1566796875,17.98880859375L10.3023096875,16.84318859375C11.0172996875,17.48505859375,11.9597996875,17.87505859375,12.9916796875,17.87505859375C15.2341796875,17.87505859375,17.0541796875,16.05505859375,17.0541796875,13.81255859375L17.0541796875,10.09130859375L8.0029296875,19.14255859375C9.1160496875,20.19070859375,10.5623096875,20.89760859375,12.1873096875,21.06820859375L12.1873096875,22.74190859375L8.9373046875,22.74190859375L8.9373046875,24.36690859375L17.0622996875,24.36690859375L17.0622996875,22.74190859375L13.8123096875,22.74190859375L13.8123096875,21.06820859375C17.5091796875,20.65380859375,20.304229687499998,17.52567859375,20.3123296875,13.80443859375L20.3123296875,11.36692859375L18.6873296875,11.36692859375L18.6873296875,13.81255859375Z"/>
    </g>
    <g></g>
    <g>
      <path d="M7.32875,14.0725C7.32062,13.98312,7.3125,13.90187,7.3125,13.8125L7.3125,11.375L5.6875,11.375L5.6875,13.8125C5.6875,14.3975,5.760625,14.96625,5.890625,15.51062L7.32875,14.0725Z"/>
    </g>
    <g>
      <path d="M16.8675,4.5337499999999995C16.37187,2.85187,14.83625,1.625,13,1.625C10.7575,1.625,8.9375,3.4450000000000003,8.9375,5.6875L8.9375,12.4637L16.8675,4.5337499999999995Z"/>
    </g>
  </g>
</svg>