<svg xmlns="http://www.w3.org/2000/svg"
  xmlns:xlink="http://www.w3.org/1999/xlink" version="1.1" width="28" height="28" viewBox="0 0 28 28">
  <g>
    <g></g>
    <g transform="matrix(-0.7071067690849304,0.7071067690849304,-0.7071067690849304,-0.7071067690849304,56.727998433700236,5.791598086089039)">
      <g>
        <path d="M39.567520263671874,27.882240512084962L41.171120263671874,26.27854051208496C41.607820263671876,25.84184051208496,42.26652026367188,25.70584051208496,42.84632026367188,25.93494051208496L44.80082026367187,26.71524051208496C45.38782026367187,26.95154051208496,45.77442026367187,27.524240512084962,45.77442026367187,28.15424051208496L45.77442026367187,31.70514051208496C45.77442026367187,32.59284051208496,45.02272026367187,33.315940512084964,44.14212026367187,33.258640512084966C30.453970263671874,32.406740512084966,27.690566263671876,20.816180512084962,27.175111763671875,16.37038051208496C27.067725363671876,15.446858512084962,27.790793263671876,14.645040512084961,28.714320263671876,14.645040512084961L32.20079026367188,14.645040512084961C32.83795026367187,14.645040512084961,33.40352026367187,15.03163151208496,33.63977026367188,15.61867651208496L34.42011026367187,17.57311051208496C34.64920026367187,18.14584051208496,34.51318026367188,18.80447051208496,34.07647026367187,19.24834051208496L32.47284026367188,20.85197051208496C32.480000263671876,20.85913051208496,33.36772026367188,27.10904051208496,39.567520263671874,27.882240512084962Z"/>
      </g>
    </g>
  </g>
</svg>