<svg xmlns="http://www.w3.org/2000/svg"
  xmlns:xlink="http://www.w3.org/1999/xlink" version="1.1" width="16" height="16" viewBox="0 0 16 16">
  <g>
    <g>
      <path d="M13.500010181045532,7.998906259536743C13.500010181045532,8.128906259536743,13.490010181045532,8.253906259536743,13.480010181045532,8.378906259536743L14.445010181045532,9.228906259536743C14.800010181045533,9.543906259536744,14.890010181045533,10.063906259536743,14.650010181045532,10.478906259536743L13.470010181045533,12.523906259536743C13.290010181045533,12.838906259536744,12.955010181045532,13.023906259536743,12.605010181045532,13.023906259536743C12.500010181045532,13.023906259536743,12.390010181045533,13.003906259536743,12.285010181045532,12.968906259536743L11.074960181045531,12.558906259536743C10.864960181045532,12.698906259536743,10.639960181045533,12.823906259536743,10.409960181045532,12.933906259536743L10.159960181045532,14.193906259536742C10.064960181045532,14.663906259536743,9.654960181045531,14.998906259536744,9.179960181045532,14.998906259536744L6.819960181045532,14.998906259536744C6.344960181045532,14.998906259536744,5.934960181045533,14.658906259536742,5.839960181045532,14.193906259536742L5.589960181045532,12.933906259536743C5.364960181045532,12.823906259536743,5.144960181045532,12.693906259536742,4.934960181045533,12.553906259536744L3.7199601810455323,12.963906259536744C3.6149601810455323,13.003906259536743,3.5049601810455324,13.018906259536744,3.3999601810455324,13.018906259536744C3.049960181045532,13.018906259536744,2.7199601810455323,12.833906259536743,2.5349601810455322,12.518906259536744L1.3549641810455322,10.473906259536744C1.1149641810455322,10.063906259536743,1.1999638810455322,9.538906259536743,1.5599641810455322,9.223906259536744L2.5199601810455325,8.378906259536743C2.5099601810455323,8.248906259536742,2.504960181045532,8.123906259536742,2.504960181045532,7.993906259536743C2.504960181045532,7.863906259536743,2.514960181045532,7.738906259536743,2.5249601810455324,7.613906259536743L1.5599641810455322,6.763906259536743C1.2049638810455323,6.448906259536743,1.1149641810455322,5.928906259536743,1.3549641810455322,5.513906259536743L2.5349601810455322,3.4689062595367433C2.714960181045532,3.1539062595367433,3.049960181045532,2.9689062595367433,3.3999601810455324,2.9689062595367433C3.5049601810455324,2.9689062595367433,3.6149601810455323,2.9889062595367433,3.7199601810455323,3.023906259536743L4.929960181045532,3.433906259536743C5.139960181045533,3.293906259536743,5.364960181045532,3.168906259536743,5.594960181045532,3.058906259536743L5.844960181045532,1.7989062595367433C5.9399601810455325,1.3289062595367431,6.349960181045533,0.9939062595367432,6.824960181045532,0.9939062595367432L9.184960181045533,0.9939062595367432C9.659960181045532,0.9939062595367432,10.069960181045532,1.3339062595367432,10.164960181045533,1.7989062595367433L10.414960181045533,3.058906259536743C10.639960181045533,3.168906259536743,10.859960181045532,3.2989062595367433,11.069960181045532,3.438906259536743L12.285010181045532,3.0289062595367433C12.390010181045533,2.9889062595367433,12.500010181045532,2.973906259536743,12.605010181045532,2.973906259536743C12.955010181045532,2.973906259536743,13.285010181045532,3.158906259536743,13.470010181045533,3.473906259536743L14.650010181045532,5.5189062595367435C14.890010181045533,5.928906259536743,14.805010181045532,6.453906259536743,14.445010181045532,6.7689062595367435L13.485010181045531,7.613906259536743C13.495010181045533,7.743906259536743,13.500010181045532,7.868906259536743,13.500010181045532,7.998906259536743ZM10.890020181045532,11.439806259536743L12.605010181045532,12.019806259536743L13.785010181045532,9.979766259536744L12.425010181045533,8.784766259536744C12.515010181045533,8.259766259536743,12.510010181045532,7.739766259536744,12.420010181045532,7.219766259536743L13.785010181045532,6.019766259536743L12.605010181045532,3.974766259536743L10.880020181045532,4.559766259536743C10.485020181045533,4.229766259536744,10.025010181045532,3.954766259536743,9.535020181045532,3.7747662595367433L9.180020181045531,1.9997662595367431L6.820020181045532,1.9997662595367431L6.465020181045532,3.7747662595367433C5.975020181045532,3.949766259536743,5.510020181045532,4.214766259536743,5.110020181045533,4.554766259536743L3.395020181045532,3.974766259536743L2.215015181045532,6.019766259536743L3.575020181045532,7.214766259536743C3.4850201810455324,7.739766259536744,3.4900201810455322,8.259766259536743,3.580020181045532,8.779766259536743L2.215015181045532,9.974766259536743L3.395020181045532,12.019806259536743L5.120020181045533,11.434806259536742C5.515020181045532,11.764806259536742,5.975020181045532,12.039806259536743,6.465020181045532,12.219806259536742L6.820020181045532,13.994806259536743L9.180020181045531,13.994806259536743L9.535020181045532,12.219806259536742C10.025010181045532,12.044806259536744,10.490020181045532,11.779806259536743,10.890020181045532,11.439806259536743Z" fill-rule="evenodd"/>
    </g>
    <g>
      <path d="M5,8C5,9.68,6.32,11,8,11C9.68,11,11,9.68,11,8C11,6.32,9.68,5,8,5C6.32,5,5,6.32,5,8ZM6,8C6,6.86,6.86,6,8,6C9.14,6,10,6.86,10,8C10,9.14,9.14,10,8,10C6.86,10,6,9.14,6,8Z" fill-rule="evenodd"/>
    </g>
    <g></g>
  </g>
</svg>