<svg xmlns="http://www.w3.org/2000/svg"
  xmlns:xlink="http://www.w3.org/1999/xlink" fill="none" version="1.1" width="16.7650146484375" height="66.84765625" viewBox="0 0 16.7650146484375 66.84765625">
  <g>
    <g>
      <path d="M12.9920146484375,57.879828125L0.000015648437500015433,65.999828125L0.5300136484375,66.847828125L13.5220146484375,58.727828125Q15.2376146484375,57.655528125,15.6871146484375,57.129128125Q16.2815146484375,56.432928125,16.5568146484375,55.559928125Q16.7650146484375,54.899828125,16.7650146484375,52.876628125L16.7650146484375,13.971028125Q16.7650146484375,11.947828125,16.5568146484375,11.287728125Q16.2815146484375,10.414688125,15.6871146484375,9.718518125Q15.2376146484375,9.192098125,13.5220146484375,8.119828125L0.5300136484375,-0.00017087500000001477L0.000015648437500015433,0.847827125L12.9920146484375,8.967818125Q14.5771146484375,9.958498125,14.9266146484375,10.367848125Q15.3889146484375,10.909328125,15.6031146484375,11.588428125Q15.7650146484375,12.101828125,15.7650146484375,13.971028125L15.7650146484375,52.876628125Q15.7650146484375,54.745828125,15.6031146484375,55.259228125Q15.3889146484375,55.938328125,14.9266146484375,56.479828125Q14.5771146484375,56.889128125,12.9920146484375,57.879828125Z" fill-rule="evenodd" fill="#E5E5E5" fill-opacity="1"/>
    </g>
    <g>
      <path d="M6.4468346484375,33.423828125L11.355924648437501,38.332928125L10.2650146484375,39.423828125L4.2650146484375,33.423828125L10.2650146484375,27.423828125L11.355924648437501,28.514738125L6.4468346484375,33.423828125Z" fill="#C1C1C1" fill-opacity="1"/>
    </g>
  </g>
</svg>