<svg xmlns="http://www.w3.org/2000/svg"
  xmlns:xlink="http://www.w3.org/1999/xlink" fill="none" version="1.1" width="26" height="26" viewBox="0 0 26 26">
  <g>
    <g>
      <path d="M16.5019,4.875L3.25,4.875C2.35625,4.875,1.625,5.60625,1.625,6.5L1.625,19.5C1.625,19.5813,1.64125,19.654400000000003,1.649375,19.735599999999998L16.5019,4.875Z" fill="currentColor" fill-opacity="1"/>
    </g>
    <g>
      <path d="M23.936221875,6.5886886C23.668021875,6.4505636,23.343021875,6.4749386,23.091121875,6.653689L18.687421875,9.79806L18.687421875,8.48994L6.044921874999999,21.1324L17.062421875,21.1324C17.956221875,21.1324,18.687421875,20.4012,18.687421875,19.5074L18.687421875,16.20869L23.091121875,19.353099999999998C23.343021875,19.5318,23.668021875,19.5562,23.936221875,19.418100000000003C24.204321875,19.279899999999998,24.374921875,19.003700000000002,24.374921875,18.6949L24.374921875,7.319939C24.374921875,7.003064,24.204321875,6.726814,23.936221875,6.5886886Z" fill="currentColor" fill-opacity="1"/>
    </g>
    <g>
      <path d="M24.375,2.8028125L23.205,1.6328125L1.625,23.2128125L2.795,24.3828125L24.375,2.8028125Z" fill="currentColor" fill-opacity="1"/>
    </g>
  </g>
</svg>