<svg xmlns="http://www.w3.org/2000/svg"
  xmlns:xlink="http://www.w3.org/1999/xlink" fill="none" version="1.1" width="16" height="16" viewBox="0 0 16 16">
  <g>
    <g>
      <path d="M8.625,9.625Q8.625,9.686557,8.61299,9.746932Q8.60098,9.807306,8.57742,9.864177Q8.55387,9.921049,8.51967,9.972232Q8.48547,10.02341,8.44194,10.06694Q8.39841,10.11047,8.347231,10.14467Q8.296048,10.17887,8.239177,10.20243Q8.182306,10.22598,8.121931,10.23799Q8.061557,10.25,8,10.25Q7.938443,10.25,7.878069,10.23799Q7.817694,10.22598,7.760823,10.20243Q7.703951,10.17887,7.652769,10.14467Q7.601586,10.11047,7.558058,10.06694Q7.514531,10.02341,7.480331,9.972232Q7.4461322,9.921049,7.4225753,9.864177Q7.3990184,9.807306,7.3870092,9.746932Q7.375,9.686557,7.375,9.625Q7.375,9.563443,7.3870092,9.503069Q7.3990184,9.442694,7.4225753,9.385823Q7.4461322,9.328952,7.480331,9.277769Q7.514531,9.226586,7.558058,9.183058Q7.601586,9.139531,7.652769,9.105332Q7.703951,9.0711322,7.760823,9.0475753Q7.817694,9.0240184,7.878069,9.0120092Q7.938443,9,8,9Q8.061557,9,8.121931,9.0120092Q8.182306,9.0240184,8.239177,9.0475753Q8.296048,9.0711322,8.347231,9.105332Q8.39841,9.139531,8.44194,9.183058Q8.48547,9.226586,8.51967,9.277769Q8.55387,9.328952,8.57742,9.385823Q8.60098,9.442694,8.61299,9.503069Q8.625,9.563443,8.625,9.625Z" fill="currentColor" fill-opacity="1"/>
    </g>
    <g>
      <path d="M13.9062,2L11.625,2C11.2798,2.000000152588,11,2.2798220000000002,11,2.625C11,2.9701779999999998,11.2798,3.25,11.625,3.25L13.125,3.25C13.4702,3.25,13.75,3.52982,13.75,3.875L13.75,10.375C13.75,10.72018,13.4702,11,13.125,11L10.13875,11C9.84866,10.99998,9.57045,11.1152,9.36531,11.32031L8.43563,12.25L8,12.6856L7.56437,12.25L6.93937,11.625L6.63469,11.32031C6.42961,11.11522,6.15139,11,5.86125,11L2.875,11C2.52982,11,2.25,10.72018,2.25,10.375L2.25,3.875C2.25,3.52982,2.52982,3.25,2.875,3.25L4.375,3.25C4.72018,3.25,5,2.9701779999999998,5,2.625C5,2.2798220000000002,4.72018,2.000000152588,4.375,2L2.09375,2C1.4896880000000001,1.999999847412,0.999999923706,2.489688,1,3.09375L1,11.15625C0.999999923706,11.76031,1.4896880000000001,12.25,2.09375,12.25L5.79688,12.25L7.55813,14.0116C7.80219,14.2556,8.19781,14.2556,8.441880000000001,14.0116L10.20312,12.25L13.9062,12.25C14.5103,12.25,15,11.76031,15,11.15625L15,3.09375C15,2.489688,14.5103,1.999999847412,13.9062,2Z" fill="currentColor" fill-opacity="1"/>
    </g>
    <g>
      <path d="M8,8C8.345178,8,8.625,7.72018,8.625,7.375L8.625,2.625C8.625,2.2798220000000002,8.345178,2,8,2C7.654822,2,7.375,2.2798220000000002,7.375,2.625L7.375,7.375C7.375,7.72018,7.654822,8,8,8Z" fill="currentColor" fill-opacity="1"/>
    </g>
  </g>
</svg>