<svg xmlns="http://www.w3.org/2000/svg"
  xmlns:xlink="http://www.w3.org/1999/xlink" version="1.1" width="26" height="26" viewBox="0 0 26 26">
  <g>
    <g>
      <path d="M18.6875,11.375L18.6875,13.8125C18.6875,16.956870000000002,16.144399999999997,19.5,13.00002,19.5C9.855640000000001,19.5,7.31252,16.956870000000002,7.31252,13.8125L7.31252,11.375L5.6875176178,11.375L5.6875176178,13.8125C5.67939262,17.54187,8.482520000000001,20.67,12.18752,21.07625L12.18752,22.75L8.93752,22.75L8.93752,24.375L17.0625,24.375L17.0625,22.75L13.81252,22.75L13.81252,21.07625C17.5094,20.66187,20.3044,17.53375,20.3125,13.8125L20.3125,11.375L18.6875,11.375Z"/>
    </g>
    <g>
      <path d="M13,17.875C15.2425,17.875,17.0625,16.055,17.0625,13.8125L17.0625,5.6875C17.0625,3.4450000000000003,15.2425,1.625,13,1.625C10.7575,1.625,8.9375,3.4450000000000003,8.9375,5.6875L8.9375,13.8125C8.9375,16.055,10.7575,17.875,13,17.875Z"/>
    </g>
    <g></g>
  </g>
</svg>