<svg xmlns="http://www.w3.org/2000/svg"
  xmlns:xlink="http://www.w3.org/1999/xlink" version="1.1" width="28" height="26" viewBox="0 0 28 26">
  <g>
    <g>
      <path d="M7.000000476837158,6.5L7.000000476837158,19.5C7.000000476837158,20.3975,7.727537476837158,21.125,8.625000476837158,21.125L10.625000476837158,21.125C11.522460476837157,21.125,12.250000476837158,20.3975,12.250000476837158,19.5L12.250000476837158,6.5C12.250000476837158,5.602537,11.522460476837157,4.875,10.625000476837158,4.875L8.625000476837158,4.875C7.727537476837158,4.875,7.000000476837158,5.602537,7.000000476837158,6.5Z"/>
    </g>
    <g>
      <path d="M15.750001907348633,6.5L15.750001907348633,19.5C15.750001907348633,20.3975,16.477538907348634,21.125,17.375001907348633,21.125L19.375001907348633,21.125C20.27246190734863,21.125,21.000001907348633,20.3975,21.000001907348633,19.5L21.000001907348633,6.5C21.000001907348633,5.602537,20.27246190734863,4.875,19.375001907348633,4.875L17.375001907348633,4.875C16.477538907348634,4.875,15.750001907348633,5.602537,15.750001907348633,6.5Z"/>
    </g>
    <g></g>
  </g>
</svg>