<svg xmlns="http://www.w3.org/2000/svg"
  xmlns:xlink="http://www.w3.org/1999/xlink" fill="none" version="1.1" width="26" height="26" viewBox="0 0 26 26">
  <g>
    <g>
      <path d="M17.0625,21.125L3.25,21.125C2.35625,21.125,1.625,20.3938,1.625,19.5L1.625,6.5C1.625,5.60625,2.35625,4.875,3.25,4.875L17.0625,4.875C17.9562,4.875,18.6875,5.60625,18.6875,6.5L18.6875,9.79875L23.0913,6.65438C23.335,6.47563,23.6681,6.45125,23.9363,6.58937C24.2044,6.7275,24.375,7.00375,24.375,7.3125L24.375,18.6875C24.375,18.9962,24.2044,19.2725,23.9363,19.410600000000002C23.6681,19.5487,23.3431,19.5244,23.0913,19.345599999999997L18.6875,16.2012L18.6875,19.5C18.6875,20.3938,17.9562,21.125,17.0625,21.125Z" fill="currentColor" fill-opacity="1"/>
    </g>
  </g>
</svg>