<svg xmlns="http://www.w3.org/2000/svg"
  xmlns:xlink="http://www.w3.org/1999/xlink" fill="none" version="1.1" width="61.5" height="61.5" viewBox="0 0 61.5 61.5">
  <g>
    <g>
      <ellipse cx="30.75" cy="30.75" rx="30" ry="30" fill="#FFFFFF" fill-opacity="1"/>
      <ellipse cx="30.75" cy="30.75" rx="30" ry="30" fill-opacity="0" stroke="currentColor" fill="none" stroke-width="1.5"/>
    </g>
    <g>
      <path d="M17.96932959790039,39.838928298950194Q17.04555359790039,42.46342829895019,17.15457259790039,44.087028298950194Q17.15930859790039,44.1576282989502,17.177142597900392,44.2260282989502Q17.19497659790039,44.294428298950194,17.22527959790039,44.3583282989502Q17.25558259790039,44.4221282989502,17.29728759790039,44.4792282989502Q17.33899259790039,44.536328298950195,17.39062959790039,44.58462829895019Q17.44226759790039,44.63292829895019,17.502018597900392,44.670728298950195Q17.56176959790039,44.7085282989502,17.62752859790039,44.73442829895019Q17.69328759790039,44.760428298950195,17.762739597900392,44.7736282989502Q17.83219059790039,44.7868282989502,17.90288709790039,44.7868282989502Q17.97675569790039,44.7868282989502,18.049204597900392,44.772428298950196Q18.12165359790039,44.758028298950194,18.18989959790039,44.72972829895019Q18.25814559790039,44.70142829895019,18.319564597900392,44.660428298950194Q18.38098459790039,44.6194282989502,18.43321759790039,44.567128298950195Q18.48544959790039,44.514928298950196,18.52648959790039,44.4535282989502Q18.56752859790039,44.3921282989502,18.595796597900392,44.3238282989502Q18.62406459790039,44.2556282989502,18.638475597900392,44.183128298950194Q18.65288659790039,44.11072829895019,18.652887597900392,44.0368282989502Q18.652887597900392,44.0116282989502,18.65120159790039,43.98652829895019Q18.56202059790039,42.6584282989502,19.39896659790039,40.29522829895019L19.41604659790039,40.246928298950195L19.426416597900392,40.196828298950194Q19.44061659790039,40.12822829895019,19.46406659790039,40.060728298950195L19.497076597900392,39.97032829895019Q19.53542659790039,39.876828298950194,19.59575659790039,39.7705282989502Q19.65008659790039,39.6815282989502,19.725966597900392,39.584228298950194Q19.76521659790039,39.54092829895019,19.78899659790039,39.512528298950194L19.79412659790039,39.506328298950194L19.79786659790039,39.5026282989502L19.820746597900392,39.47672829895019Q19.85467659790039,39.4418282989502,19.92101659790039,39.3759282989502Q20.11056659790039,39.1922282989502,20.35872659790039,39.010028298950196Q20.48072659790039,38.92062829895019,21.030776597900392,38.698128298950195Q21.60184659790039,38.4671282989502,21.81945659790039,38.32862829895019Q22.56132659790039,37.8634282989502,22.90034659790039,37.444028298950194Q23.14633659790039,37.136928298950195,23.26704659790039,36.79692829895019Q23.376766597900392,36.49982829895019,23.458046597900392,36.160428298950194Q23.60594659790039,35.527128298950196,23.63603659790039,34.84532829895019Q23.66158659790039,34.272828298950195,23.60482659790039,33.5432282989502L23.60225659790039,33.510228298950196L22.97169659790039,29.746928298950195Q22.94110659790039,29.577728298950195,22.92100659790039,29.435528298950196L22.89614659790039,29.271828298950197L22.878086597900392,29.116028298950198Q22.84217659790039,28.822428298950193,22.82469659790039,28.483628298950194Q22.79005659790039,27.876928298950197,22.83924659790039,27.215728298950197Q22.888316597900392,26.557228298950193,23.01525659790039,25.956928298950196Q23.15282659790039,25.314448298950197,23.384176597900392,24.742438298950198Q23.51084659790039,24.429958298950197,23.65359659790039,24.172338298950194L23.671716597900392,24.139638298950196L25.36643659790039,20.201328298950195Q25.969306597900392,18.784188298950195,26.48910659790039,18.061808298950197Q27.25874659790039,16.992238298950195,28.47545659790039,16.324428298950195Q28.975756597900393,16.049361298950195,29.76525659790039,16.073530298950196Q30.30675659790039,16.090109298950196,31.52815659790039,16.318442298950195Q31.95545659790039,16.398318298950194,32.17295659790039,16.435638298950195Q32.64665659790039,16.517678298950194,33.47495659790039,16.444538298950196Q34.139956597900394,16.385808298950195,34.40335659790039,16.458028298950197Q35.68755659790039,16.913968298950195,36.42975659790039,17.782548298950196Q37.05945659790039,18.519378298950194,37.62055659790039,19.982888298950193Q38.05315659790039,21.111278298950197,38.62955659790039,24.036428298950195Q39.006856597900395,25.951128298950195,39.250856597900395,26.940628298950195L39.25755659790039,26.967828298950195L39.266256597900394,26.994428298950197Q39.58875659790039,27.979028298950197,39.65845659790039,28.526528298950197Q39.97135659790039,31.081628298950193,39.205456597900394,33.475328298950195Q38.74665659790039,34.97502829895019,38.89075659790039,36.9294282989502L38.89455659790039,36.98102829895019L38.90545659790039,37.031628298950196Q39.34815659790039,39.094928298950194,40.40465659790039,40.341528298950195Q41.035556597900396,41.0860282989502,42.38305659790039,41.936328298950194Q42.87725659790039,42.248228298950195,43.10295659790039,42.41162829895019L43.112556597900394,42.41852829895019L43.12235659790039,42.4251282989502Q43.41515659790039,42.623428298950195,43.588156597900394,43.24512829895019Q43.756456597900396,43.8502282989502,43.70455659790039,44.39192829895019L43.704356597900386,44.393728298950194Q43.70095659790039,44.42962829895019,43.70095659790039,44.4657282989502Q43.70095659790039,44.53962829895019,43.715356597900396,44.61202829895019Q43.72975659790039,44.6845282989502,43.75805659790039,44.752728298950196Q43.78625659790039,44.821028298950196,43.82735659790039,44.882428298950195Q43.86835659790039,44.943828298950194,43.92065659790039,44.99602829895019Q43.97285659790039,45.048328298950196,44.034256597900395,45.08932829895019Q44.09565659790039,45.1303282989502,44.163956597900395,45.15862829895019Q44.23215659790039,45.18692829895019,44.30465659790039,45.201328298950195Q44.37705659790039,45.2157282989502,44.45095659790039,45.2157282989502Q44.52025659790039,45.2157282989502,44.588356597900386,45.203028298950194Q44.65655659790039,45.19032829895019,44.72125659790039,45.1653282989502Q44.78585659790039,45.140328298950195,44.84485659790039,45.103928298950194Q44.903856597900386,45.067528298950194,44.95515659790039,45.020928298950196Q45.006456597900396,44.9743282989502,45.048356597900394,44.9191282989502Q45.09025659790039,44.8639282989502,45.12135659790039,44.801928298950195Q45.15245659790039,44.7399282989502,45.171656597900395,44.673328298950196Q45.19085659790039,44.606728298950195,45.19745659790039,44.5377282989502L45.19755659790039,44.53702829895019Q45.27645659790039,43.717428298950196,45.03325659790039,42.84312829895019Q44.71475659790039,41.698328298950194,43.97365659790039,41.1901282989502Q43.709356597900396,40.9996282989502,43.18355659790039,40.6678282989502Q42.03095659790039,39.940428298950195,41.548956597900386,39.371728298950195Q40.74795659790039,38.426528298950196,40.38305659790039,36.7673282989502Q40.26905659790039,35.126228298950195,40.63405659790039,33.9324282989502Q41.50025659790039,31.225628298950195,41.14645659790039,28.337028298950194Q41.05975659790039,27.656228298950197,40.70065659790039,26.554728298950195Q40.46655659790039,25.600228298950196,40.10125659790039,23.746438298950196Q39.49995659790039,20.694758298950195,39.02115659790039,19.445918298950197Q38.36755659790039,17.741258298950196,37.57015659790039,16.808068298950197Q36.56015659790039,15.626137298950196,34.881456597900396,15.036055298950195L34.86485659790039,15.030249298950196L34.84815659790039,15.025221298950195Q34.31285659790039,14.864700298950195,33.34295659790039,14.950352298950195Q32.709756597900395,15.006274298950196,32.42665659790039,14.957245298950195Q32.22015659790039,14.921814298950196,31.803856597900392,14.843984298950195Q30.468456597900392,14.594357298950195,29.811156597900393,14.574233298950196Q28.61215659790039,14.537527298950195,27.75369659790039,15.009480298950196Q26.23944659790039,15.840611298950195,25.27156659790039,17.185688298950197Q24.65431659790039,18.043478298950195,23.98859659790039,19.608418298950195L22.32291659790039,23.479228298950197Q22.14674659790039,23.802238298950193,21.99361659790039,24.180008298950195Q21.71336659790039,24.872888298950194,21.54769659790039,25.646628298950198Q21.39994659790039,26.345428298950196,21.34338659790039,27.104428298950197Q21.286866597900392,27.864028298950196,21.32668659790039,28.560928298950195Q21.34687659790039,28.952328298950196,21.38805659790039,29.288728298950197L21.40918659790039,29.471028298950195L21.43575659790039,29.645328298950197Q21.45994659790039,29.816528298950196,21.49231659790039,29.994828298950196L22.11184659790039,33.6922282989502Q22.15843659790039,34.3100282989502,22.13749659790039,34.779228298950194Q22.11355659790039,35.32172829895019,21.99928659790039,35.811128298950194Q21.93874659790039,36.063928298950195,21.85350659790039,36.2950282989502Q21.81742659790039,36.39662829895019,21.733836597900392,36.501028298950196Q21.552246597900393,36.7256282989502,21.01408659790039,37.0631282989502Q20.91219659790039,37.1280282989502,20.468276597900392,37.307528298950196Q19.74489659790039,37.6002282989502,19.47096659790039,37.8009282989502Q19.14012659790039,38.043828298950196,18.86390859790039,38.3117282989502Q18.77450859790039,38.40052829895019,18.72839159790039,38.4486282989502L18.71804359790039,38.4594282989502L18.710051597900392,38.468428298950194L18.68577259790039,38.492228298950195L18.63975659790039,38.548528298950195Q18.63285459790039,38.556828298950194,18.607930597900392,38.584228298950194Q18.60125859790039,38.591528298950195,18.59745759790039,38.59572829895019L18.58097159790039,38.6139282989502L18.56570959790039,38.6331282989502Q18.41742159790039,38.8198282989502,18.30701759790039,39.00282829895019L18.30258559790039,39.010228298950196L18.29832259790039,39.0176282989502Q18.18013659790039,39.22412829895019,18.10090659790039,39.421828298950196L18.09648159790039,39.4328282989502L18.04696459790039,39.5689282989502Q18.00066259790039,39.702428298950196,17.96932959790039,39.838928298950194Z" fill-rule="evenodd" fill="currentColor" fill-opacity="1"/>
    </g>
  </g>
</svg>